<svg width="390" height="389" viewBox="0 0 390 389" fill="none" xmlns="http://www.w3.org/2000/svg">
<path d="M223.138 15.4742C213.364 13.8814 203.477 13.0921 193.574 13.1142L193.978 194.413L223.138 15.4742Z" fill="#EE4492"/>
<path d="M227.586 16.2561C271.257 24.4944 310.381 48.486 337.527 83.6736L193.978 194.413L227.586 16.2561Z" fill="#DF1DFF"/>
<path d="M346.498 82.2888C374.595 120.509 387.319 167.885 382.151 215.039L193.978 194.413L346.498 82.2888Z" fill="#7C75FF"/>
<path d="M373.707 218.227C371.985 231.224 368.858 243.995 364.381 256.318L193.978 194.413L373.707 218.227Z" fill="#D26FEB"/>
<path d="M363.225 259.413C352.661 286.918 335.553 311.435 313.381 330.84L193.978 194.413L363.225 259.413Z" fill="#882DCF"/>
<path d="M310.643 333.189C296.66 344.944 280.981 354.518 264.138 361.587L193.978 194.413L310.643 333.189Z" fill="#2864FF"/>
<path d="M261.195 362.792C226.964 376.457 189.381 379.364 153.455 371.126L193.978 194.413L261.195 362.792Z" fill="#6998FF"/>
<path d="M149.241 370.107C128.685 364.872 109.207 356.072 91.6932 344.104L193.978 194.413L149.241 370.107Z" fill="#AEE7FF"/>
<path d="M89.1393 342.327C59.6563 321.43 37.091 292.199 24.3397 258.386L193.978 194.413L89.1393 342.327Z" fill="#6EE3C0"/>
<path d="M22.9395 254.542C16.9541 237.516 13.5444 219.692 12.8231 201.66L193.978 194.413L22.9395 254.542Z" fill="#D26FEB"/>
<path d="M12.7074 197.664C12.0491 160.954 22.552 124.91 42.8264 94.2994L193.978 194.413L12.7074 197.664Z" fill="#882DCF"/>
<path d="M45.4412 90.4593C61.7148 67.2066 83.2202 48.0993 108.226 34.6753C133.233 21.2513 161.041 13.8856 189.414 13.1712L193.978 194.413L45.4412 90.4593Z" fill="#2864FF"/>
<circle cx="193.978" cy="194.413" r="174.873" fill="url(#paint0_radial_0_252)"/>
<path d="M273.139 186.944C273.306 188.627 273.418 190.327 273.474 192.04L272.975 192.056C273.002 192.901 273.016 193.75 273.016 194.601C273.016 195.452 273.002 196.301 272.975 197.145L273.474 197.162C273.418 198.875 273.306 200.575 273.139 202.258L272.642 202.209C272.474 203.904 272.251 205.583 271.974 207.245L272.468 207.327C272.186 209.016 271.85 210.688 271.46 212.338L270.973 212.224C270.583 213.877 270.139 215.511 269.643 217.122L270.121 217.269C269.617 218.903 269.061 220.515 268.454 222.101L267.987 221.923C267.38 223.508 266.722 225.069 266.015 226.602L266.469 226.812C265.754 228.362 264.989 229.885 264.176 231.379L263.737 231.139C262.926 232.629 262.068 234.089 261.163 235.517L261.585 235.785C260.673 237.226 259.714 238.635 258.711 240.011L258.307 239.716C257.308 241.085 256.266 242.42 255.181 243.719L255.565 244.039C254.473 245.347 253.338 246.62 252.163 247.854L251.801 247.509C250.634 248.735 249.427 249.923 248.181 251.071L248.52 251.439C247.268 252.593 245.978 253.708 244.652 254.78L244.338 254.391C243.023 255.455 241.672 256.476 240.287 257.454L240.576 257.863C239.186 258.845 237.762 259.783 236.307 260.675L236.046 260.249C234.605 261.132 233.134 261.971 231.632 262.762L231.866 263.204C230.362 263.997 228.83 264.742 227.27 265.439L227.066 264.982C225.524 265.671 223.956 266.311 222.363 266.901L222.537 267.37C220.945 267.96 219.328 268.5 217.689 268.989L217.546 268.51C215.931 268.992 214.294 269.423 212.636 269.802L212.747 270.289C211.094 270.667 209.421 270.993 207.729 271.266L207.65 270.772C205.987 271.041 204.307 271.257 202.611 271.419L202.659 271.917C200.974 272.078 199.275 272.187 197.561 272.241L197.545 271.741C196.7 271.768 195.852 271.782 195 271.782C194.148 271.782 193.3 271.768 192.455 271.741L192.439 272.241C190.725 272.187 189.026 272.078 187.342 271.917L187.389 271.419C185.693 271.257 184.013 271.041 182.35 270.772L182.271 271.266C180.579 270.993 178.906 270.667 177.253 270.289L177.364 269.802C175.707 269.423 174.069 268.992 172.454 268.51L172.311 268.989C170.672 268.5 169.056 267.96 167.464 267.37L167.637 266.901C166.044 266.311 164.476 265.671 162.934 264.982L162.73 265.439C161.171 264.742 159.638 263.997 158.135 263.204L158.368 262.762C156.867 261.971 155.395 261.132 153.954 260.249L153.693 260.675C152.238 259.783 150.814 258.845 149.424 257.863L149.713 257.454C148.328 256.476 146.978 255.455 145.663 254.391L145.348 254.78C144.022 253.708 142.732 252.593 141.48 251.439L141.819 251.071C140.574 249.923 139.366 248.735 138.199 247.509L137.837 247.854C136.662 246.62 135.527 245.347 134.435 244.039L134.819 243.719C133.734 242.42 132.692 241.085 131.694 239.716L131.29 240.011C130.286 238.635 129.327 237.226 128.415 235.785L128.837 235.517C127.932 234.089 127.074 232.629 126.263 231.139L125.824 231.379C125.011 229.885 124.246 228.362 123.531 226.812L123.985 226.602C123.278 225.069 122.62 223.508 122.013 221.923L121.546 222.101C120.939 220.515 120.383 218.903 119.88 217.269L120.357 217.122C119.861 215.511 119.417 213.877 119.027 212.224L118.54 212.338C118.15 210.688 117.814 209.016 117.533 207.327L118.026 207.245C117.749 205.584 117.526 203.904 117.358 202.209L116.861 202.258C116.694 200.575 116.582 198.875 116.526 197.162L117.026 197.145C116.998 196.301 116.984 195.452 116.984 194.601C116.984 193.75 116.998 192.901 117.026 192.057L116.526 192.04C116.582 190.327 116.694 188.627 116.861 186.944L117.358 186.993C117.526 185.298 117.749 183.618 118.026 181.957L117.533 181.875C117.814 180.186 118.15 178.514 118.54 176.864L119.027 176.978C119.417 175.325 119.861 173.691 120.357 172.08L119.88 171.933C120.383 170.299 120.939 168.687 121.546 167.101L122.013 167.279C122.62 165.694 123.278 164.133 123.985 162.6L123.531 162.39C124.246 160.84 125.011 159.317 125.824 157.823L126.263 158.062C127.074 156.573 127.932 155.113 128.837 153.684L128.415 153.417C129.327 151.976 130.286 150.567 131.29 149.191L131.694 149.486C132.692 148.117 133.734 146.782 134.819 145.483L134.435 145.163C135.527 143.854 136.662 142.582 137.837 141.348L138.199 141.693C139.366 140.467 140.574 139.279 141.819 138.13L141.48 137.763C142.732 136.609 144.022 135.494 145.348 134.422L145.663 134.811C146.978 133.747 148.328 132.726 149.713 131.747L149.424 131.339C150.814 130.357 152.238 129.419 153.693 128.527L153.954 128.953C155.395 128.07 156.867 127.231 158.368 126.44L158.135 125.998C159.638 125.205 161.171 124.46 162.73 123.763L162.934 124.22C164.476 123.531 166.044 122.891 167.637 122.301L167.464 121.832C169.056 121.242 170.672 120.702 172.311 120.213L172.454 120.692C174.069 120.21 175.707 119.779 177.364 119.4L177.253 118.913C178.906 118.535 180.579 118.209 182.271 117.936L182.35 118.43C184.013 118.161 185.693 117.945 187.389 117.783L187.342 117.285C189.026 117.124 190.725 117.015 192.439 116.961L192.455 117.461C193.3 117.434 194.148 117.42 195 117.42C195.852 117.42 196.7 117.434 197.545 117.461L197.561 116.961C199.275 117.015 200.974 117.124 202.659 117.285L202.611 117.783C204.307 117.945 205.987 118.161 207.65 118.43L207.729 117.936C209.421 118.209 211.094 118.535 212.747 118.913L212.636 119.4C214.294 119.779 215.931 120.21 217.546 120.692L217.689 120.213C219.328 120.702 220.945 121.242 222.537 121.832L222.363 122.301C223.956 122.891 225.524 123.531 227.066 124.22L227.27 123.763C228.83 124.46 230.362 125.205 231.866 125.998L231.632 126.44C233.134 127.231 234.605 128.07 236.046 128.953L236.307 128.527C237.762 129.419 239.186 130.357 240.576 131.339L240.287 131.747C241.672 132.726 243.023 133.747 244.338 134.811L244.652 134.422C245.978 135.494 247.268 136.609 248.52 137.763L248.181 138.131C249.427 139.279 250.634 140.467 251.801 141.693L252.163 141.348C253.338 142.582 254.473 143.854 255.565 145.163L255.181 145.483C256.266 146.782 257.308 148.117 258.307 149.486L258.711 149.191C259.714 150.567 260.673 151.976 261.585 153.417L261.163 153.684C262.068 155.113 262.926 156.573 263.737 158.062L264.176 157.823C264.989 159.317 265.754 160.84 266.469 162.39L266.015 162.6C266.722 164.133 267.38 165.694 267.987 167.279L268.454 167.101C269.061 168.687 269.617 170.299 270.121 171.933L269.643 172.08C270.139 173.691 270.583 175.325 270.973 176.978L271.46 176.864C271.85 178.514 272.186 180.186 272.468 181.875L271.974 181.957C272.251 183.618 272.474 185.298 272.642 186.993L273.139 186.944Z" stroke="white" strokeOpacity="0.5" strokeDasharray="5 5"/>
<mask id="path-15-inside-1_0_252" fill="white">
<path d="M351 78.9099C380.149 118.279 393.335 167.214 387.913 215.898L195 194.413L351 78.9099Z"/>
</mask>
<path d="M351 78.9099C380.149 118.279 393.335 167.214 387.913 215.898L195 194.413L351 78.9099Z" fill="url(#paint1_linear_0_252)" fillOpacity="0.2" stroke="#7C75FF" strokeWidth="2" strokeDasharray="5 5" mask="url(#path-15-inside-1_0_252)"/>
<rect x="131" y="129.995" width="128" height="129" rx="64" fill="white" fillOpacity="0.15"/>
<path d="M178.211 188.404V201.495H176.626V190.066H176.549L173.353 192.188V190.577L176.626 188.404H178.211ZM186.246 201.674C185.283 201.674 184.463 201.412 183.785 200.887C183.108 200.359 182.59 199.594 182.232 198.593C181.874 197.587 181.695 196.372 181.695 194.949C181.695 193.534 181.874 192.326 182.232 191.325C182.594 190.319 183.114 189.552 183.792 189.024C184.473 188.491 185.292 188.225 186.246 188.225C187.201 188.225 188.017 188.491 188.694 189.024C189.376 189.552 189.896 190.319 190.254 191.325C190.616 192.326 190.797 193.534 190.797 194.949C190.797 196.372 190.618 197.587 190.26 198.593C189.902 199.594 189.385 200.359 188.707 200.887C188.029 201.412 187.209 201.674 186.246 201.674ZM186.246 200.267C187.201 200.267 187.942 199.807 188.471 198.887C188.999 197.966 189.263 196.654 189.263 194.949C189.263 193.816 189.142 192.85 188.899 192.054C188.66 191.257 188.315 190.649 187.863 190.232C187.416 189.814 186.877 189.605 186.246 189.605C185.3 189.605 184.561 190.072 184.028 191.005C183.495 191.934 183.229 193.249 183.229 194.949C183.229 196.083 183.348 197.046 183.587 197.838C183.826 198.631 184.169 199.234 184.616 199.647C185.068 200.061 185.611 200.267 186.246 200.267ZM197.496 201.674C196.533 201.674 195.713 201.412 195.035 200.887C194.358 200.359 193.84 199.594 193.482 198.593C193.124 197.587 192.945 196.372 192.945 194.949C192.945 193.534 193.124 192.326 193.482 191.325C193.844 190.319 194.364 189.552 195.042 189.024C195.723 188.491 196.542 188.225 197.496 188.225C198.451 188.225 199.267 188.491 199.944 189.024C200.626 189.552 201.146 190.319 201.504 191.325C201.866 192.326 202.047 193.534 202.047 194.949C202.047 196.372 201.868 197.587 201.51 198.593C201.152 199.594 200.635 200.359 199.957 200.887C199.279 201.412 198.459 201.674 197.496 201.674ZM197.496 200.267C198.451 200.267 199.192 199.807 199.721 198.887C200.249 197.966 200.513 196.654 200.513 194.949C200.513 193.816 200.392 192.85 200.149 192.054C199.91 191.257 199.565 190.649 199.113 190.232C198.666 189.814 198.127 189.605 197.496 189.605C196.55 189.605 195.811 190.072 195.278 191.005C194.745 191.934 194.479 193.249 194.479 194.949C194.479 196.083 194.598 197.046 194.837 197.838C195.076 198.631 195.419 199.234 195.866 199.647C196.318 200.061 196.861 200.267 197.496 200.267ZM211.15 199.04V198.35C211.15 197.872 211.248 197.436 211.444 197.039C211.644 196.639 211.934 196.319 212.313 196.081C212.696 195.838 213.161 195.716 213.706 195.716C214.26 195.716 214.725 195.838 215.1 196.081C215.475 196.319 215.758 196.639 215.95 197.039C216.142 197.436 216.238 197.872 216.238 198.35V199.04C216.238 199.517 216.14 199.956 215.944 200.357C215.752 200.753 215.466 201.073 215.087 201.316C214.712 201.554 214.252 201.674 213.706 201.674C213.152 201.674 212.686 201.554 212.306 201.316C211.927 201.073 211.64 200.753 211.444 200.357C211.248 199.956 211.15 199.517 211.15 199.04ZM212.453 198.35V199.04C212.453 199.436 212.547 199.792 212.735 200.108C212.922 200.419 213.246 200.574 213.706 200.574C214.154 200.574 214.469 200.419 214.652 200.108C214.84 199.792 214.934 199.436 214.934 199.04V198.35C214.934 197.953 214.844 197.6 214.665 197.289C214.486 196.973 214.167 196.816 213.706 196.816C213.259 196.816 212.937 196.973 212.741 197.289C212.549 197.6 212.453 197.953 212.453 198.35ZM204.63 191.549V190.858C204.63 190.381 204.728 189.944 204.924 189.548C205.124 189.147 205.414 188.828 205.793 188.589C206.176 188.346 206.641 188.225 207.186 188.225C207.74 188.225 208.205 188.346 208.58 188.589C208.955 188.828 209.238 189.147 209.43 189.548C209.622 189.944 209.718 190.381 209.718 190.858V191.549C209.718 192.026 209.62 192.465 209.424 192.865C209.232 193.262 208.946 193.581 208.567 193.824C208.192 194.063 207.732 194.182 207.186 194.182C206.632 194.182 206.166 194.063 205.787 193.824C205.407 193.581 205.12 193.262 204.924 192.865C204.728 192.465 204.63 192.026 204.63 191.549ZM205.934 190.858V191.549C205.934 191.945 206.027 192.301 206.215 192.616C206.402 192.927 206.726 193.083 207.186 193.083C207.634 193.083 207.949 192.927 208.132 192.616C208.32 192.301 208.414 191.945 208.414 191.549V190.858C208.414 190.462 208.324 190.108 208.145 189.797C207.966 189.482 207.647 189.324 207.186 189.324C206.739 189.324 206.417 189.482 206.221 189.797C206.029 190.108 205.934 190.462 205.934 190.858ZM205.115 201.495L214.115 188.404H215.573L206.573 201.495H205.115Z" fill="white" fillOpacity="0.5"/>
<defs>
<radialGradient id="paint0_radial_0_252" cx="0" cy="0" r="1" gradientUnits="userSpaceOnUse" gradientTransform="translate(193.978 194.413) rotate(90) scale(174.873)">
<stop stopColor="#7772DD"/>
<stop offset="1" stopColor="#0E0228"/>
</radialGradient>
<linearGradient id="paint1_linear_0_252" x1="309.747" y1="159.09" x2="452.798" y2="125.65" gradientUnits="userSpaceOnUse">
<stop stopColor="#7C75FF"/>
<stop offset="1" stopColor="#4A4699"/>
</linearGradient>
</defs>
</svg>
